<svg width="444" height="128" viewBox="0 0 444 128" fill="#2B4266" xmlns="http://www.w3.org/2000/svg">
<path fill-rule="evenodd" clip-rule="evenodd" d="M0.20677 2.53118C0.0720075 2.92175 0.047625 3.3455 0.0847986 3.75698C0.507785 8.43915 0.849225 35.7268 0.858375 67.1304L0.874039 116.004C0.876162 122.63 6.24812 128 12.874 128H222.439H432C438.627 128 444 122.627 444 116V64V12C444 5.37258 438.627 0 432 0H221.579L2.15442 1.13526C1.27466 1.13981 0.49373 1.69952 0.20677 2.53118ZM127.683 64V111.826C127.683 118.453 122.311 123.826 115.683 123.826H66.3708H17.0583C10.4309 123.826 5.05828 118.454 5.05828 111.826V64.928C5.05828 32.5329 5.47632 5.61113 5.98772 5.10191C6.49773 4.5913 34.0884 4.17391 67.3002 4.17391H115.683C122.311 4.17391 127.683 9.5465 127.683 16.1739V64ZM51.7101 31.7231C37.6821 36.5663 28.6413 46.2344 25.9254 59.2946C22.1394 77.5054 30.5963 94.2428 47.4099 101.817C53.3168 104.479 56.9105 105.025 68.5599 105.034C81.43 105.042 83.2721 104.696 90.801 100.851C101.798 95.2362 107.096 87.7885 107.857 76.8765C108.322 70.2024 107.934 68.3604 105.517 65.8073C101.354 61.408 94.1189 59.8428 77.8989 59.8344C64.1705 59.8261 63.563 59.9555 61.3278 63.3614C59.4703 66.1927 59.3185 67.5784 60.5698 70.3179C62.0817 73.6334 62.5806 73.7391 76.6211 73.7391C92.7365 73.7391 95.3214 74.8925 92.9804 81.0393C88.2928 93.3496 63.0961 96.761 50.0798 86.848C43.6475 81.9492 41.2884 76.6386 41.2884 67.0581C41.2884 60.8571 42.059 57.689 44.4348 54.119C52.1881 42.4696 71.4569 39.4936 87.0679 47.5325C94.4826 51.3503 96.0892 51.7176 99.1953 50.304C102.13 48.9697 102.697 47.8706 102.34 44.2087C101.191 32.4244 71.1406 25.0157 51.7101 31.7231ZM281.614 41.6877C282.975 43.1889 283.719 45.3802 283.268 46.5572C282.213 49.3023 279.571 49.3384 279.571 46.6087C279.571 43.8303 278.724 43.9763 275.359 47.3363C271.761 50.9287 267.03 48.9071 267.03 43.7774C267.03 39.4894 269.489 39.3113 271.167 43.4783C271.86 45.1993 272.467 45.8713 272.516 44.9683C272.616 43.1012 276.439 38.9565 278.061 38.9565C278.654 38.9565 280.252 40.185 281.614 41.6877ZM248.654 48.455C249.014 52.0863 249.694 52.8696 252.486 52.8696C254.355 52.8696 255.882 53.4957 255.882 54.2609C255.882 55.0261 254.314 55.6522 252.398 55.6522C249.061 55.6522 248.915 56.0111 248.915 64.1739V68.4327C248.915 70.6383 250.932 72.2928 253.095 71.8609C256.111 71.2584 257.276 71.5562 257.276 72.9294C257.276 76.7235 250.269 77.6751 246.924 74.336C244.057 71.4727 243.638 42.5391 246.476 43.4699C247.435 43.783 248.415 46.0271 248.654 48.455ZM343.679 48.1141C344.179 50.9885 345.298 52.3033 347.511 52.6191C351.807 53.2299 351.467 55.6522 347.084 55.6522C343.64 55.6522 343.544 55.8957 343.949 63.6522C344.355 71.424 344.476 71.6452 348.199 71.3906C353.15 71.0525 353.386 74.7381 348.492 75.9638C346.083 76.5677 344.079 76.0626 342.221 74.3847C339.841 72.2337 339.49 70.0508 339.49 57.408C339.49 46.4195 339.912 43.0386 341.232 43.4769C342.191 43.7955 343.291 45.8824 343.679 48.1141ZM184.119 67.0678C184.119 79.3475 183.833 80.7819 180.741 84.0654C176.873 88.1711 169.016 88.953 164.531 85.6793C160.678 82.8661 162.951 81.479 168.338 83.3544C172.223 84.7068 173.428 84.5551 176.421 82.3318C178.355 80.896 180.144 78.3263 180.398 76.6219C180.801 73.9075 180.51 73.7085 178.05 75.0219C173.067 77.6849 168.099 76.7416 163.635 72.2838C159.964 68.6191 159.502 67.3475 160.215 62.8925C161.458 55.1388 165.418 52.6511 175.641 53.2007C180.395 53.4558 184.119 57.3849 184.119 62.1457V67.0678ZM211.252 56.6136C212.874 58.6741 214.017 61.6473 213.791 63.2223C213.434 65.7155 212.138 66.1774 203.815 66.7826C194.344 67.4713 194.278 67.5047 197.148 70.0842C199.958 72.6122 203.187 72.6678 208.853 70.2915C210.54 69.5819 211.291 69.9033 211.291 71.335C211.291 72.4716 209.423 74.1746 207.137 75.1193C195.329 80.0028 185.341 66.6101 193.278 56.5357C195.608 53.5777 197.337 52.8696 202.234 52.8696C207.162 52.8696 208.857 53.5736 211.252 56.6136ZM236.374 54.1816C236.374 54.9023 233.709 55.6842 230.451 55.9207C225.601 56.2699 224.529 56.8515 224.529 59.1304C224.529 61.3607 225.728 62.073 230.57 62.7186C238.928 63.8317 241.642 68.6943 236.854 73.977C235.16 75.847 232.543 76.5217 226.984 76.5217C217.258 76.5217 217.592 73.3454 227.425 72.3478C235.933 71.4852 236.995 67.9652 229.13 66.6894C226.297 66.2289 223.005 65.0463 221.815 64.0598C219.241 61.9283 218.982 56.8779 221.324 54.5391C223.29 52.576 236.374 52.2643 236.374 54.1816ZM283.314 55.8943C286.026 58.439 286.538 60.32 286.538 67.7204C286.538 72.6609 285.927 76.5217 285.145 76.5217C284.379 76.5217 283.751 75.911 283.751 75.1652C283.751 74.2831 282.5 74.2831 280.177 75.1652C274.329 77.3844 271.224 76.7499 266.923 72.455C261.725 67.2654 261.476 61.0713 266.27 56.2852C270.752 51.8094 278.763 51.6257 283.314 55.8943ZM312.577 55.8943C319.849 62.7172 314.518 76.5217 304.61 76.5217C298.684 76.5217 292.112 69.9604 292.112 64.0431C292.112 54.297 305.282 49.0532 312.577 55.8943ZM377.142 54.9899C379.633 57.9882 377.767 59.1791 373.57 57.2689C368.76 55.0817 367.808 55.2042 364.572 58.4348C361.027 61.9743 361.007 67.0386 364.524 70.2164C367.173 72.6108 370.492 72.6317 376.069 70.2915C379.534 68.8362 379.3 73.2174 375.812 75.0817C371.005 77.6501 365.939 76.7096 361.678 72.455C356.481 67.2654 356.231 61.0713 361.026 56.2852C365.045 52.2713 374.267 51.5311 377.142 54.9899ZM402.779 53.7141C403.991 54.1788 404.983 55.4977 404.983 56.6456C404.983 58.087 404.229 58.4223 402.544 57.7308C397.131 55.5047 395.663 55.6063 392.04 58.4515C387.744 61.8254 387.301 64.7958 390.431 69.255C392.697 72.4856 399.87 73.5875 401.499 70.9565C402.788 68.8737 404.983 69.28 404.983 71.6035C404.983 76.6748 394.765 78.0508 389.254 73.7224C382.972 68.7889 383.107 59.5798 389.534 54.6532C391.9 52.8404 399.154 52.3256 402.779 53.7141ZM169.487 56.6177C166.398 57.7197 163.913 61.3426 163.913 64.7457C163.913 71.7732 174.417 75.0275 178.465 69.255C181.442 65.0129 181.201 63.047 177.214 59.0678C173.693 55.5506 173.049 55.3461 169.487 56.6177ZM197.667 57.8184C192.846 61.1896 193.968 62.6087 201.455 62.6087C209.404 62.6087 211.273 60.9461 206.824 57.8337C202.923 55.1068 201.547 55.104 197.667 57.8184ZM270.128 57.8184C264.221 61.9492 267.626 72.3478 274.886 72.3478C278.502 72.3478 281.849 69.632 283 65.7628C283.675 63.4963 282.975 61.7071 280.418 59.1541C276.345 55.0873 274.393 54.8341 270.128 57.8184ZM301.867 56.6177C296.241 58.6254 294.544 66.1621 298.841 70.0452C302.268 73.1409 306.838 72.9489 310.227 69.5652C313.905 65.8936 313.743 63.2097 309.593 59.0678C306.072 55.5506 305.428 55.3461 301.867 56.6177Z" fill="#F5F5F5"/>
</svg>
